<?xml version="1.0" encoding="UTF-8"?>
<!DOCTYPE svg PUBLIC "-//W3C//DTD SVG 1.1//EN" "http://www.w3.org/Graphics/SVG/1.1/DTD/svg11.dtd">
<!-- Creator: CorelDRAW X6 -->
<svg xmlns="http://www.w3.org/2000/svg" xml:space="preserve" width="59.7234mm" height="8.2768mm" version="1.1" style="shape-rendering:geometricPrecision; text-rendering:geometricPrecision; image-rendering:optimizeQuality; fill-rule:evenodd; clip-rule:evenodd"
viewBox="0 0 55670 7715"
 xmlns:xlink="http://www.w3.org/1999/xlink">
 <defs>
  <style type="text/css">
   <![CDATA[
    .str1 {stroke:#2B2A29;stroke-width:233.032}
    .str0 {stroke:#E31E24;stroke-width:233.032}
    .fil1 {fill:#2B2A29;fill-rule:nonzero}
    .fil0 {fill:#E31E24;fill-rule:nonzero}
   ]]>
  </style>
 </defs>
 <g id="Layer_x0020_1">
  <metadata id="CorelCorpID_0Corel-Layer"/>
  <g id="_704147008">
   <path class="fil0 str0" d="M4752 1905c0,82 -29,151 -87,208 -58,57 -129,85 -212,85 -80,0 -148,-28 -205,-85 -58,-57 -87,-125 -87,-208 0,-79 29,-146 87,-202 57,-56 125,-84 205,-84 84,0 154,28 212,84 58,56 87,123 87,202zm2437 4738c0,80 -30,150 -88,210 -59,59 -130,89 -211,89 -79,0 -150,-30 -209,-89 -60,-60 -91,-130 -91,-210 0,-79 30,-147 91,-205 59,-58 130,-87 209,-87 81,0 152,29 211,87 58,58 88,126 88,205zm-942 0c0,80 -28,150 -84,210 -55,59 -126,89 -216,89 -79,0 -147,-30 -205,-89 -58,-60 -87,-130 -87,-210 0,-79 29,-147 87,-205 58,-58 126,-87 205,-87 89,0 161,29 216,87 56,58 84,126 84,205zm6610 -5080c0,79 -29,146 -87,202 -57,56 -128,84 -212,84 -77,0 -146,-28 -206,-84 -62,-56 -92,-123 -92,-202 0,-80 30,-148 92,-206 60,-57 130,-86 206,-86 85,0 155,29 212,86 58,58 87,126 87,206zm5668 948c0,77 -28,145 -84,204 -55,58 -124,88 -209,88 -79,0 -149,-30 -209,-88 -60,-59 -91,-128 -91,-204 0,-79 30,-149 91,-205 60,-58 130,-87 209,-87 85,0 154,29 209,87 56,57 84,126 84,205zm4426 4119c0,84 -29,154 -87,212 -58,58 -129,87 -212,87 -79,0 -150,-29 -209,-87 -60,-58 -91,-129 -91,-212 0,-80 30,-147 91,-203 59,-55 130,-82 209,-82 84,0 154,28 212,82 58,56 87,123 87,203zm-942 0c0,84 -28,154 -84,212 -55,58 -124,87 -209,87 -84,0 -154,-29 -212,-87 -58,-58 -87,-129 -87,-212 0,-80 29,-147 87,-203 58,-55 129,-82 212,-82 85,0 154,28 209,82 56,56 84,123 84,203zm2818 696c0,75 -25,139 -77,193 -51,53 -116,80 -195,80 -71,0 -132,-27 -186,-80 -53,-53 -80,-117 -80,-193 0,-70 27,-132 80,-185 53,-53 115,-80 186,-80 79,0 144,27 195,80 51,52 77,115 77,185zm439 -648c0,70 -25,130 -77,181 -51,51 -114,77 -188,77 -75,0 -139,-26 -192,-77 -53,-51 -80,-111 -80,-181 0,-73 27,-136 80,-189 53,-53 117,-80 192,-80 74,0 137,27 188,80 51,53 77,116 77,189zm-842 0c0,70 -26,130 -77,181 -51,51 -116,77 -196,77 -70,0 -132,-26 -186,-77 -52,-51 -79,-111 -79,-181 0,-73 27,-136 79,-189 53,-53 116,-80 186,-80 80,0 145,27 196,80 51,53 77,116 77,189zm17973 -5129c0,79 -29,148 -87,209 -58,60 -129,90 -212,90 -77,0 -146,-30 -207,-90 -62,-60 -92,-130 -92,-209 0,-80 30,-148 92,-205 61,-58 131,-87 207,-87 84,0 154,29 212,87 58,57 87,125 87,205zm-938 0c0,79 -28,148 -84,209 -55,60 -125,90 -209,90 -84,0 -154,-30 -212,-90 -58,-60 -87,-130 -87,-209 0,-80 29,-148 87,-205 58,-58 129,-87 212,-87 84,0 154,29 209,87 56,57 84,125 84,205zm12640 299c0,70 -26,131 -77,185 -51,53 -116,80 -196,80 -72,0 -133,-27 -185,-80 -51,-54 -77,-115 -77,-185 0,-75 26,-139 77,-193 51,-53 113,-80 185,-80 80,0 145,27 196,80 51,53 77,117 77,193zm-850 0c0,70 -24,131 -73,185 -49,53 -111,80 -188,80 -75,0 -139,-27 -192,-80 -54,-54 -80,-115 -80,-185 0,-75 27,-139 80,-193 53,-53 117,-80 192,-80 77,0 139,27 188,80 49,53 73,117 73,193zm412 -660c0,73 -26,136 -77,189 -51,53 -116,80 -196,80 -72,0 -133,-27 -184,-80 -51,-53 -77,-116 -77,-189 0,-65 26,-125 77,-179 51,-52 113,-79 184,-79 80,0 145,27 196,79 51,53 77,114 77,179z"/>
   <path class="fil1 str1" d="M117 5746l0 -425 2464 0c70,0 123,-21 159,-63 37,-43 54,-95 54,-159 0,-97 -41,-214 -121,-352 -80,-137 -202,-274 -365,-409l-1488 -1210 187 -411c274,238 508,438 701,603 193,164 350,299 476,406 150,119 270,219 363,299 209,176 353,340 431,491 80,151 120,284 120,399 0,93 -17,174 -53,241 -35,69 -75,123 -123,164l483 0 0 425 -3287 0zm5458 0c-89,0 -182,-13 -280,-40 -97,-25 -188,-60 -271,-103 -84,-43 -159,-98 -226,-164 -66,-65 -119,-140 -158,-224 -5,14 -17,49 -37,106 -21,57 -64,116 -130,179 -65,62 -159,118 -282,169 -122,51 -285,77 -490,77l-404 0 0 -425 312 0c132,0 238,-17 318,-53 81,-35 145,-78 194,-129 49,-51 82,-109 102,-173 20,-65 29,-130 29,-196l0 -1941 432 0 0 1955c5,29 29,73 73,131 44,57 101,116 170,176 69,60 148,114 239,160 91,46 187,70 289,70l238 0 0 425 -118 0zm1481 -870c0,176 -31,320 -95,431 -63,111 -143,198 -238,263 -95,65 -201,110 -315,136 -116,27 -226,40 -333,40l-578 0 0 -425 564 0c61,0 125,-7 192,-21 66,-13 128,-42 183,-86 56,-45 101,-106 136,-182 35,-78 52,-179 52,-303l0 -2249 431 0 0 2396zm1356 870l0 -4470 433 0 0 4470 -433 0zm1109 -5326c8,48 13,80 13,99 0,121 -44,205 -132,256 -88,51 -193,77 -312,77 -52,0 -107,-5 -162,-13 -56,-9 -110,-21 -165,-35 -167,-48 -321,-71 -462,-71 -133,0 -241,26 -324,77 -81,51 -133,130 -155,239 -9,-24 -14,-49 -14,-71 0,-23 0,-45 0,-68 0,-140 49,-240 146,-300 98,-60 221,-91 370,-91 50,0 102,3 155,10 53,7 108,15 165,23 119,23 225,44 316,64 91,18 169,29 234,29 157,0 266,-75 327,-225zm1774 5326c-116,0 -223,-17 -320,-52 -98,-36 -182,-79 -256,-130 -73,-51 -136,-103 -187,-157 -51,-52 -92,-100 -121,-140l0 931c0,150 -24,282 -73,397 -49,116 -115,215 -197,296 -82,82 -181,144 -296,186 -114,42 -238,63 -372,63 -22,5 -51,5 -85,0 -22,0 -52,-2 -91,-7 -37,-5 -73,-12 -110,-23l-118 -255c88,45 186,68 292,68 79,0 157,-14 232,-42 77,-27 144,-68 203,-125 58,-57 104,-123 139,-198 34,-77 51,-162 51,-260l0 -3467 425 0 0 1921c9,70 42,138 99,205 57,66 124,128 202,183 79,56 160,100 247,132 86,34 161,50 227,50l187 0 0 425 -78 0zm2616 -1621c0,226 -35,437 -104,635 -71,197 -168,369 -293,515 -125,146 -275,261 -449,346 -175,84 -369,125 -581,125l-1288 0 0 -425 1342 0c115,0 215,-16 299,-50 84,-33 155,-75 216,-129 59,-54 111,-116 155,-187 44,-72 84,-147 117,-226 -65,-74 -155,-144 -272,-209 -116,-65 -239,-131 -372,-199 -132,-67 -266,-138 -400,-212 -136,-73 -258,-155 -365,-246 -109,-91 -198,-191 -269,-303 -70,-111 -106,-239 -106,-384 0,-102 24,-199 73,-292 49,-93 117,-174 206,-242 88,-70 194,-125 318,-167 123,-42 259,-63 406,-63 224,0 420,48 589,143 168,95 311,223 428,383 117,159 204,343 262,550 57,208 86,420 86,638zm-458 20c0,-222 -23,-429 -70,-622 -46,-193 -111,-358 -196,-498 -84,-139 -181,-251 -292,-332 -110,-81 -232,-122 -363,-122 -71,0 -138,14 -202,42 -65,29 -123,68 -174,119 -51,51 -92,113 -122,183 -31,72 -47,151 -47,240 0,198 56,363 165,494 110,130 239,245 387,345 148,100 302,195 459,285 157,91 286,194 389,310 23,-71 40,-142 50,-212 9,-72 15,-150 15,-233zm7843 1601c-181,0 -360,-44 -536,-132 -175,-88 -303,-211 -382,-368 -45,249 -129,483 -249,698 -122,217 -273,406 -455,568 -181,161 -390,289 -627,382 -237,93 -494,139 -774,139 -248,0 -486,-38 -711,-115 -226,-78 -430,-190 -614,-339 -183,-148 -339,-332 -466,-552 -126,-219 -216,-473 -268,-761 -9,-111 -16,-194 -21,-248 -3,-55 -8,-111 -13,-172 -5,-60 -7,-141 -7,-242 0,-102 0,-255 0,-459l0 -983 432 0 0 1615c0,242 36,484 107,726 72,241 179,458 320,651 141,193 317,348 527,469 209,120 451,180 725,180 138,0 261,-13 368,-37 106,-26 183,-49 231,-72 107,-48 224,-117 354,-210 129,-93 249,-214 362,-362 111,-148 204,-327 278,-536 73,-208 110,-451 110,-731l0 -1698 432 0 0 1651c14,37 44,84 90,141 46,58 103,115 172,169 67,56 145,103 231,144 86,40 177,59 275,59l139 0 0 425 -30 0zm2205 0c-131,-5 -249,-26 -353,-63 -104,-37 -195,-82 -273,-132 -77,-51 -139,-103 -188,-157 -49,-53 -82,-99 -101,-135l-14 -44 0 7c-4,24 -20,66 -46,124 -28,58 -78,115 -150,173 -73,58 -176,110 -311,157 -136,46 -313,70 -536,70l-285 0 0 -425 299 0c129,0 234,-17 316,-53 82,-35 146,-78 193,-129 46,-51 79,-109 96,-173 19,-65 28,-130 28,-196l0 -1934 432 0 0 1948c5,29 29,73 73,131 44,57 101,116 172,176 70,60 151,114 241,160 91,46 187,70 289,70l153 0 0 425 -35 0zm2176 0c-89,0 -182,-13 -280,-40 -98,-25 -188,-60 -271,-103 -84,-43 -159,-98 -226,-164 -66,-65 -119,-140 -158,-224 -5,14 -17,49 -37,106 -21,57 -64,116 -130,179 -65,62 -159,118 -282,169 -122,51 -285,77 -490,77l-404 0 0 -425 312 0c132,0 238,-17 318,-53 81,-35 145,-78 194,-129 49,-51 82,-109 102,-173 20,-65 29,-130 29,-196l0 -1941 414 0 0 1955c7,29 33,73 75,131 43,57 101,116 173,176 73,60 155,114 248,160 93,46 190,70 292,70l238 0 0 425 -118 0zm5629 -904c0,181 -34,331 -101,448 -66,118 -149,211 -246,277 -97,67 -203,114 -317,139 -113,27 -216,40 -309,40 -195,0 -386,-43 -574,-129 -188,-87 -327,-225 -415,-415 -5,14 -17,50 -38,109 -22,59 -65,121 -130,186 -64,64 -158,122 -278,173 -122,51 -286,77 -494,77 -385,0 -710,-139 -972,-418 -75,124 -181,225 -318,302 -137,78 -317,116 -538,116l-1109 0 0 -425 1016 0c125,0 230,-17 313,-53 84,-35 150,-78 198,-129 49,-51 82,-109 101,-173 17,-65 27,-130 27,-196l0 -1608 425 0 0 1622c0,24 0,49 0,71 0,23 -2,45 -6,68 98,136 206,237 327,300 122,65 270,98 448,98 115,0 213,-17 295,-53 82,-35 149,-80 200,-136 51,-56 87,-115 110,-180 23,-65 34,-130 34,-196l0 -1594 426 0 0 1636c106,176 224,307 355,393 130,87 297,130 501,130 115,0 214,-17 296,-53 81,-35 147,-80 198,-136 51,-56 88,-115 110,-180 23,-65 35,-130 35,-196l0 -2276 432 0 0 2362zm2154 904c-124,0 -254,-9 -389,-27 -135,-19 -259,-57 -370,-116 -113,-59 -203,-145 -273,-259 -68,-113 -103,-267 -103,-462l0 -3607 431 0 0 3454c0,111 22,205 66,282 44,78 97,139 160,186 61,46 128,79 195,96 69,19 128,28 177,28l578 0 0 425 -473 0zm100 0l0 -425 2205 0c-111,-200 -211,-383 -299,-551 -79,-143 -152,-280 -219,-409 -66,-130 -111,-213 -133,-249 -111,-213 -227,-386 -349,-519 -121,-132 -222,-230 -300,-290 -31,43 -66,93 -103,151 -38,58 -74,117 -109,180 -35,63 -65,128 -90,194 -63,174 -51,427 -51,47l0 -333c14,-85 43,-175 89,-273 38,-84 92,-180 161,-289 69,-109 159,-226 270,-354 24,-22 60,-59 107,-110 46,-51 101,-109 163,-176 62,-67 128,-140 196,-219 70,-79 139,-159 210,-238 167,-186 348,-387 543,-606l486 0c-319,335 -631,663 -934,983 -304,320 -602,652 -894,996 55,4 123,15 204,34 81,17 168,53 262,107 93,53 186,125 278,216 93,91 175,211 248,361 15,27 41,73 74,137 34,65 74,143 121,233 46,90 97,188 153,292 56,104 111,208 168,310 129,246 273,514 432,802l-2889 0zm11147 0c-186,0 -368,-44 -545,-132 -179,-88 -305,-221 -379,-398 -62,195 -165,332 -311,411 -146,80 -295,119 -447,119l-2994 0c-227,0 -425,-46 -592,-139 -168,-93 -305,-214 -412,-365 -106,-151 -184,-321 -235,-512 -51,-190 -77,-383 -77,-578 0,-274 40,-517 118,-731 80,-213 186,-391 317,-535 131,-144 284,-254 458,-328 175,-75 357,-113 548,-113l0 204c-140,0 -269,37 -387,110 -117,74 -219,180 -306,320 -86,139 -154,306 -205,501 -51,195 -77,413 -77,655 0,263 45,468 136,614 92,146 198,254 321,325 124,70 246,113 365,125 121,14 211,21 273,21l2769 0c93,0 174,-37 244,-110 69,-74 103,-179 103,-314l0 -2416 438 0 0 2327c9,37 37,84 84,141 46,58 104,115 175,169 70,56 148,103 234,144 86,40 177,59 275,59l269 0 0 425 -160 0zm-183 0l0 -425 2205 0c-111,-200 -211,-383 -299,-551 -79,-143 -152,-280 -219,-409 -66,-130 -111,-213 -133,-249 -111,-213 -227,-386 -349,-519 -121,-132 -222,-230 -300,-290 -31,43 -66,93 -103,151 -38,58 -74,117 -109,180 -35,63 -66,127 -90,194 -63,168 -40,415 -46,29l-5 -316c-1,-86 44,-175 89,-273 39,-83 92,-180 161,-289 69,-109 159,-226 270,-354 24,-22 60,-59 107,-110 46,-51 101,-109 163,-176 62,-67 128,-140 196,-219 70,-79 139,-159 210,-238 167,-186 348,-387 543,-606l486 0c-319,335 -631,663 -934,983 -304,320 -602,652 -894,996 55,4 123,15 204,34 81,17 168,53 262,107 93,53 186,125 278,216 93,91 175,211 248,361 15,27 41,73 74,137 34,65 74,143 121,233 46,90 97,188 153,292 56,104 111,208 168,310 129,246 273,514 432,802l-2889 0zm5381 0c-116,0 -223,-17 -320,-52 -98,-36 -182,-79 -256,-130 -73,-51 -136,-103 -187,-157 -51,-52 -92,-100 -121,-140l0 931c0,150 -24,282 -73,397 -49,116 -115,215 -197,296 -82,82 -181,144 -296,186 -114,42 -238,63 -372,63 -22,5 -51,5 -85,0 -22,0 -52,-2 -91,-7 -37,-5 -73,-12 -110,-23l-118 -255c88,45 186,68 292,68 79,0 157,-14 232,-42 77,-27 144,-68 203,-125 58,-57 104,-123 139,-198 34,-77 51,-162 51,-260l0 -3467 425 0 0 1921c9,70 42,138 99,205 57,66 124,128 202,183 79,56 160,100 247,132 86,34 161,50 227,50l187 0 0 425 -78 0zm5648 -904c0,181 -34,331 -101,448 -66,118 -148,211 -246,277 -97,67 -203,114 -317,139 -113,27 -216,40 -309,40 -195,0 -386,-43 -574,-129 -188,-87 -327,-225 -415,-415 -5,14 -17,50 -38,109 -22,59 -65,121 -130,186 -64,64 -158,122 -278,173 -122,51 -286,77 -494,77 -385,0 -710,-139 -972,-418 -75,124 -181,225 -318,302 -137,78 -317,116 -538,116l-1109 0 0 -425 1016 0c125,0 230,-17 313,-53 84,-35 150,-78 198,-129 49,-51 82,-109 101,-173 17,-65 27,-130 27,-196l0 -1608 425 0 0 1622c0,24 0,49 0,71 0,23 -2,45 -6,68 98,136 206,237 327,300 122,65 270,98 448,98 115,0 214,-17 295,-53 82,-35 148,-80 200,-136 51,-56 87,-115 110,-180 23,-65 34,-130 34,-196l0 -1594 426 0 0 1636c106,176 224,307 355,393 130,87 297,130 501,130 115,0 214,-17 296,-53 81,-35 147,-80 198,-136 51,-56 88,-115 110,-180 23,-65 35,-130 35,-196l0 -2276 432 0 0 2362z"/>
  </g>
 </g>
</svg>
